<svg width="24" height="24" viewBox="0 0 24 24" fill="none" xmlns="http://www.w3.org/2000/svg">
<path fill-rule="evenodd" clip-rule="evenodd" d="M22.6101 0H18.7301C18.2718 0 17.9001 0.371604 17.9001 0.83C17.9001 1.2884 18.2718 1.66 18.7301 1.66H22.3401V5.66C22.3401 6.1184 22.7118 6.49 23.1701 6.49C23.6285 6.49 24.0001 6.1184 24.0001 5.66V1.44C24.0113 0.659559 23.3905 0.01641 22.6101 0Z" fill="#D1D5DF"/>
<path fill-rule="evenodd" clip-rule="evenodd" d="M0.830148 6.41C1.28629 6.4046 1.65475 6.03614 1.66015 5.58V1.66H5.05015C5.50854 1.66 5.88015 1.2884 5.88015 0.83C5.88015 0.371604 5.50854 0 5.05015 0H1.39015C0.6098 0.01641 -0.0110175 0.659559 0.000148283 1.44V5.58C0.000148283 6.0384 0.371752 6.41 0.830148 6.41Z" fill="#D1D5DF"/>
<path fill-rule="evenodd" clip-rule="evenodd" d="M4.91015 22.34H1.66015V18.66C1.66015 18.2016 1.28854 17.83 0.830148 17.83C0.371752 17.83 0.000148283 18.2016 0.000148283 18.66V22.56C-0.0110175 23.3404 0.6098 23.9835 1.39015 24H4.91015C5.36854 24 5.74015 23.6284 5.74015 23.17C5.74015 22.7116 5.36854 22.34 4.91015 22.34Z" fill="#D1D5DF"/>
<path fill-rule="evenodd" clip-rule="evenodd" d="M23.1701 17.63C22.7117 17.63 22.3401 18.0016 22.3401 18.46V22.34H19.9001C19.4417 22.34 19.0701 22.7116 19.0701 23.17C19.0701 23.6284 19.4417 24 19.9001 24H22.6101C23.3904 23.9836 24.0112 23.3404 24.0001 22.56V18.46C24.0001 18.0016 23.6285 17.63 23.1701 17.63Z" fill="#D1D5DF"/>
<path d="M19.1401 12.5799C19.0234 12.4512 18.8887 12.3401 18.7401 12.2499C19.3013 10.8171 19.5071 9.26967 19.3401 7.73995C18.915 5.01432 16.8278 2.84714 14.1201 2.31995C13.7091 2.23298 13.2902 2.1894 12.8701 2.18995C11.4426 2.19371 10.0658 2.7202 9.00009 3.66995C7.79253 3.69615 6.63779 4.17016 5.76009 4.99995C4.70315 6.18016 4.20099 7.7558 4.38009 9.32995C4.45252 10.43 4.79607 11.495 5.38009 12.4299L5.23009 12.5899C4.70146 13.3763 4.57541 14.3662 4.89009 15.2599C4.99155 15.7219 5.25827 16.1308 5.64009 16.4099C5.84494 16.5565 6.07084 16.6712 6.31009 16.7499C6.66615 19.7133 9.22688 21.9138 12.2101 21.8199C15.2005 21.9288 17.7728 19.7221 18.1201 16.7499C18.3556 16.6652 18.5778 16.5473 18.7801 16.3999C19.1631 16.1238 19.4275 15.713 19.5201 15.2499C19.8232 14.35 19.6822 13.3596 19.1401 12.5799ZM16.8201 15.4099C16.6362 15.5666 16.5212 15.7893 16.5001 16.0299C16.4792 17.1537 16.0098 18.2224 15.1965 18.9981C14.3833 19.7739 13.2935 20.1922 12.1701 20.1599C9.82097 20.2102 7.87471 18.349 7.82009 15.9999C7.78342 15.5194 7.38206 15.1485 6.90009 15.1499H6.81009C6.71786 15.1188 6.63038 15.075 6.55009 15.0199C6.50387 14.9735 6.47254 14.9143 6.46009 14.8499C6.34157 14.4781 6.32091 14.0821 6.40009 13.6999C6.5364 13.7801 6.69197 13.8216 6.85009 13.8199C6.98202 13.8198 7.11212 13.789 7.23009 13.7299C7.60135 13.5686 7.82142 13.1815 7.77009 12.7799C7.45009 9.77995 8.36009 8.63995 8.91009 8.19995C9.63009 8.86995 11.1901 9.74995 14.4001 9.76995C14.9748 9.75864 15.5192 10.0271 15.8601 10.4899C16.3369 11.2361 16.558 12.1171 16.4901 12.9999C16.4686 13.4327 16.7586 13.8194 17.1801 13.9199C17.2593 13.9358 17.3409 13.9358 17.4201 13.9199C17.6026 13.9208 17.7808 13.8649 17.9301 13.7599C18.0024 14.1325 17.9818 14.5172 17.8701 14.8799C17.8576 14.9443 17.8263 15.0035 17.7801 15.0499C17.7042 15.1121 17.6153 15.1565 17.5201 15.1799H17.4301C17.2068 15.1863 16.992 15.2673 16.8201 15.4099ZM9.29009 5.32995C9.52625 5.32482 9.75298 5.23625 9.93009 5.07995C10.7051 4.30257 11.7525 3.85777 12.8501 3.83995C13.1628 3.83912 13.4747 3.87266 13.7801 3.93995C15.8132 4.3294 17.3822 5.95446 17.7001 7.99995C17.7941 8.76354 17.7603 9.53746 17.6001 10.2899C17.4936 10.0589 17.3664 9.83801 17.2201 9.62995C16.5709 8.72434 15.5243 8.18801 14.4101 8.18995C10.7601 8.18995 9.88009 6.90995 9.85009 6.85995C9.6828 6.59047 9.38726 6.42755 9.07009 6.42995C8.9575 6.43122 8.84593 6.45151 8.74009 6.48995C8.35009 6.62995 6.63009 7.42995 6.17009 10.2099C6.07526 9.89789 6.01818 9.57559 6.00009 9.24995C5.85722 8.1474 6.17967 7.03513 6.89009 6.17995C7.50645 5.62365 8.30986 5.32014 9.14009 5.32995H9.29009Z" fill="#D1D5DF"/>
</svg>
